<svg xmlns="http://www.w3.org/2000/svg" width="125" height="74" viewBox="0 0 125 74" fill="none">
  <g clip-path="url(#clip0_989_37)">
    <path fill-rule="evenodd" clip-rule="evenodd" d="M124.649 62.2633L124.641 62.162C124.635 61.6849 124.595 61.2175 124.532 60.756L120.754 11.6843L97.3859 7.78955H27.2806L3.91223 11.6843L0.159646 60.4152C-0.81209 66.2749 2.80612 72.0274 8.66186 73.5989C14.5215 75.1685 20.5311 71.9943 22.6186 66.4307L35.0701 50.6317H89.5964L102.036 66.419C103.699 70.8414 107.958 73.9981 112.965 73.9981C119.416 73.9981 124.649 68.7655 124.649 62.3159C124.649 62.2983 124.649 62.2808 124.649 62.2633Z" fill="#4D4D4D"/>
    <path fill-rule="evenodd" clip-rule="evenodd" d="M46.7544 19.4738C46.7544 23.7755 50.2421 27.2632 54.5439 27.2632H70.1228C74.4245 27.2632 77.9123 23.7755 77.9123 19.4738V7.78955H46.7544V19.4738Z" fill="#1A1A1A"/>
    <path fill-rule="evenodd" clip-rule="evenodd" d="M23.3861 0H15.5966C11.2949 0 7.80713 3.48774 7.80713 7.78947V15.5789C7.80713 19.8807 11.2949 23.3684 15.5966 23.3684H23.3861C27.6878 23.3684 31.1756 19.8807 31.1756 15.5789V7.78947C31.1756 3.48774 27.6878 0 23.3861 0ZM109.07 0H101.281C96.9791 0 93.4913 3.48774 93.4913 7.78947V15.5789C93.4913 19.8807 96.9791 23.3684 101.281 23.3684H109.07C113.372 23.3684 116.86 19.8807 116.86 15.5789V7.78947C116.86 3.48774 113.372 0 109.07 0Z" fill="#4D4D4D"/>
    <path d="M62.3335 38.9472C64.4845 38.9472 66.2282 37.2035 66.2282 35.0525C66.2282 32.9014 64.4845 31.1577 62.3335 31.1577C60.1825 31.1577 58.4387 32.9014 58.4387 35.0525C58.4387 37.2035 60.1825 38.9472 62.3335 38.9472Z" fill="#808080"/>
    <path fill-rule="evenodd" clip-rule="evenodd" d="M42.8597 27.2632C34.2543 27.2632 27.2808 34.2367 27.2808 42.8421C27.2808 51.4456 34.2543 58.4191 42.8597 58.4191C51.4632 58.4191 58.4387 51.4456 58.4387 42.8421C58.4387 34.2367 51.4632 27.2632 42.8597 27.2632ZM81.8071 27.2632C73.2017 27.2632 66.2281 34.2367 66.2281 42.8421C66.2281 51.4456 73.2017 58.4191 81.8071 58.4191C90.4105 58.4191 97.386 51.4456 97.386 42.8421C97.386 34.2367 90.4105 27.2632 81.8071 27.2632Z" fill="#666666"/>
    <path fill-rule="evenodd" clip-rule="evenodd" d="M81.8072 35.0508C77.5035 35.0508 74.0177 38.5385 74.0177 42.8422C74.0177 47.1439 77.5035 50.6317 81.8072 50.6317C86.1089 50.6317 89.5966 47.1439 89.5966 42.8422C89.5966 38.5385 86.1089 35.0508 81.8072 35.0508ZM42.8598 35.0508C38.558 35.0508 35.0703 38.5385 35.0703 42.8422C35.0703 47.1439 38.558 50.6317 42.8598 50.6317C47.1615 50.6317 50.6493 47.1439 50.6493 42.8422C50.6493 38.5385 47.1615 35.0508 42.8598 35.0508Z" fill="#B4B4B4"/>
    <path fill-rule="evenodd" clip-rule="evenodd" d="M19.4913 3.89453C8.73595 3.89453 0.0175781 12.6129 0.0175781 23.3682C0.0175781 34.1216 8.73595 42.8419 19.4913 42.8419C30.2446 42.8419 38.9649 34.1216 38.9649 23.3682C38.9649 12.6129 30.2446 3.89453 19.4913 3.89453ZM105.175 3.89453C94.4202 3.89453 85.7018 12.6129 85.7018 23.3682C85.7018 34.1216 94.4202 42.8419 105.175 42.8419C115.929 42.8419 124.649 34.1216 124.649 23.3682C124.649 12.6129 115.929 3.89453 105.175 3.89453Z" fill="#333333"/>
    <path fill-rule="evenodd" clip-rule="evenodd" d="M19.4913 19.4736C21.6412 19.4736 23.3861 17.7287 23.3861 15.5788C23.3861 13.4289 21.6412 11.6841 19.4913 11.6841C17.3395 11.6841 15.5966 13.4289 15.5966 15.5788C15.5966 17.7287 17.3376 19.4736 19.4913 19.4736ZM11.7019 19.4736C9.55197 19.4736 7.80713 21.2184 7.80713 23.3683C7.80713 25.5182 9.55197 27.263 11.7019 27.263C13.8518 27.263 15.5966 25.5182 15.5966 23.3683C15.5966 21.2184 13.8518 19.4736 11.7019 19.4736ZM27.2808 19.4736C25.129 19.4736 23.3861 21.2184 23.3861 23.3683C23.3861 25.5182 25.129 27.263 27.2808 27.263C29.4307 27.263 31.1756 25.5182 31.1756 23.3683C31.1756 21.2184 29.4307 19.4736 27.2808 19.4736ZM19.4913 27.263C17.3395 27.263 15.5966 29.0079 15.5966 31.1578C15.5966 33.3077 17.3395 35.0506 19.4913 35.0506C21.6412 35.0506 23.3861 33.3077 23.3861 31.1578C23.3861 29.0079 21.6412 27.263 19.4913 27.263ZM105.176 19.4736C107.325 19.4736 109.07 17.7287 109.07 15.5788C109.07 13.4289 107.325 11.6841 105.176 11.6841C103.026 11.6841 101.281 13.4289 101.281 15.5788C101.281 17.7287 103.024 19.4736 105.176 19.4736ZM97.3861 19.4736C95.2342 19.4736 93.4913 21.2184 93.4913 23.3683C93.4913 25.5182 95.2342 27.263 97.3861 27.263C99.536 27.263 101.281 25.5182 101.281 23.3683C101.281 21.2184 99.536 19.4736 97.3861 19.4736ZM112.965 19.4736C110.815 19.4736 109.07 21.2184 109.07 23.3683C109.07 25.5182 110.815 27.263 112.965 27.263C115.115 27.263 116.86 25.5182 116.86 23.3683C116.86 21.2184 115.115 19.4736 112.965 19.4736ZM105.176 27.263C103.026 27.263 101.281 29.0079 101.281 31.1578C101.281 33.3077 103.026 35.0506 105.176 35.0506C107.325 35.0506 109.07 33.3077 109.07 31.1578C109.07 29.0079 107.325 27.263 105.176 27.263Z" fill="#CCCCCC"/>
  </g>
  <defs>
    <clipPath id="clip0_989_37">
      <rect width="124.649" height="74" fill="white"/>
    </clipPath>
  </defs>
</svg>