<svg width="70" height="70" viewBox="0 0 70 70" fill="none" xmlns="http://www.w3.org/2000/svg">
<circle cx="35" cy="35" r="35" fill="white"/>
<path d="M56.6464 23.7634C54.4108 19.8369 51.3784 16.7284 47.5484 14.437C43.7178 12.1455 39.5359 11 34.9998 11C30.4642 11 26.281 12.1458 22.4511 14.437C18.6208 16.7282 15.5885 19.8369 13.3529 23.7634C11.1177 27.6897 10 31.9772 10 36.6259C10 42.2101 11.5893 47.2315 14.7688 51.6914C17.948 56.1517 22.0549 59.2381 27.0894 60.9509C27.6755 61.0624 28.1093 60.9839 28.3913 60.7176C28.6735 60.4509 28.8144 60.1169 28.8144 59.7169C28.8144 59.6502 28.8089 59.0498 28.798 57.9151C28.7869 56.7804 28.7816 55.7905 28.7816 54.9459L28.0329 55.0786C27.5555 55.1683 26.9533 55.2062 26.2262 55.1955C25.4995 55.1851 24.7451 55.107 23.964 54.9619C23.1825 54.818 22.4557 54.4843 21.7829 53.9616C21.1105 53.4388 20.6331 52.7545 20.3509 51.9098L20.0254 51.1419C19.8084 50.6307 19.4669 50.0628 19.0002 49.4404C18.5335 48.8173 18.0616 48.395 17.5843 48.1725L17.3564 48.0053C17.2045 47.8942 17.0636 47.7601 16.9333 47.6045C16.803 47.449 16.7056 47.2933 16.6405 47.1374C16.5753 46.9814 16.6293 46.8534 16.8032 46.753C16.977 46.6526 17.2913 46.6039 17.7472 46.6039L18.398 46.7036C18.832 46.7928 19.3689 47.0591 20.0093 47.5043C20.6494 47.9491 21.1756 48.5274 21.588 49.2389C22.0873 50.1512 22.689 50.8463 23.3946 51.3247C24.0997 51.8031 24.8105 52.0418 25.5265 52.0418C26.2425 52.0418 26.8609 51.9862 27.382 51.8755C27.9025 51.7643 28.3908 51.597 28.8467 51.3747C29.042 49.8837 29.5738 48.7382 30.4415 47.9375C29.2047 47.8043 28.0927 47.6036 27.105 47.3368C26.1179 47.0696 25.0978 46.636 24.0455 46.0348C22.9926 45.4345 22.1191 44.6889 21.4249 43.7995C20.7306 42.9097 20.1607 41.7414 19.7162 40.2958C19.2714 38.8497 19.049 37.1814 19.049 35.2907C19.049 32.5985 19.9064 30.3076 21.6208 28.4166C20.8177 26.3926 20.8935 24.1237 21.8485 21.61C22.4778 21.4096 23.4111 21.56 24.648 22.0603C25.885 22.5609 26.7907 22.9897 27.366 23.3452C27.9413 23.7006 28.4023 24.0018 28.7496 24.246C30.7682 23.6679 32.8513 23.3787 34.9995 23.3787C37.1478 23.3787 39.2314 23.6679 41.2501 24.246L42.487 23.4456C43.3329 22.9115 44.3317 22.422 45.4812 21.9771C46.6314 21.5324 47.5109 21.4099 48.1188 21.6103C49.095 24.1241 49.182 26.393 48.3786 28.417C50.0929 30.308 50.9507 32.5995 50.9507 35.291C50.9507 37.1818 50.7274 38.8553 50.2833 40.3125C49.8387 41.7701 49.264 42.9371 48.5589 43.8163C47.853 44.6953 46.974 45.4349 45.9217 46.0352C44.8691 46.6359 43.8487 47.0695 42.8615 47.3367C41.874 47.6038 40.762 47.8046 39.5252 47.9381C40.6532 48.9388 41.2174 50.5183 41.2174 52.676V59.716C41.2174 60.1159 41.353 60.4498 41.6246 60.7166C41.8959 60.983 42.3242 61.0614 42.9102 60.9498C47.9454 59.2373 52.0524 56.1508 55.2314 51.6905C58.4101 47.2306 60 42.2091 60 36.625C59.9989 31.9769 58.8806 27.6897 56.6464 23.7634Z" fill="black"/>
</svg>
