<svg width="70" height="70" viewBox="0 0 70 70" fill="none" xmlns="http://www.w3.org/2000/svg">
<circle cx="35" cy="35" r="35" fill="white"/>
<path d="M15.7266 24.8236C17.0889 21.9847 19.0137 19.5853 21.4395 17.5902C24.7266 14.8743 28.4971 13.2396 32.7246 12.7386C37.6904 12.1497 42.3574 13.0902 46.6728 15.6741C47.7451 16.3157 48.7471 17.0452 49.7051 17.8362C49.9424 18.0296 49.916 18.1439 49.7139 18.3372C47.7539 20.2884 45.7939 22.2396 43.8516 24.2083C43.623 24.4368 43.5 24.4193 43.2539 24.2347C37.5586 19.8489 29.2529 21.0355 25.0078 26.8362C24.2607 27.8558 23.6543 28.9544 23.2324 30.1497C23.1973 30.2552 23.127 30.3519 23.0742 30.4573C21.9404 29.596 20.7979 28.7347 19.6729 27.8646C18.3545 26.8538 17.0361 25.8431 15.7266 24.8236Z" fill="#E94335"/>
<path d="M23.0742 38.7012C23.4521 39.5361 23.7686 40.4063 24.2432 41.1885C26.2383 44.458 29.0859 46.5586 32.8389 47.3057C36.2227 47.9824 39.4746 47.5254 42.5068 45.8291C42.6123 45.7764 42.7178 45.7236 42.8145 45.6709C42.8672 45.7236 42.9111 45.7852 42.9639 45.8291C45.2314 47.5869 47.5078 49.3447 49.7754 51.1025C48.6855 52.1836 47.4463 53.0537 46.1279 53.8096C42.3047 55.9893 38.165 56.8682 33.8057 56.5342C28.374 56.1123 23.6895 53.9678 19.8223 50.1006C18.126 48.4043 16.7285 46.4883 15.7178 44.2998C16.6582 43.5791 17.5986 42.8672 18.5391 42.1465C20.0508 40.9951 21.5625 39.8525 23.0742 38.7012Z" fill="#34A853"/>
<path d="M49.7843 51.1025C47.5167 49.3447 45.2403 47.5869 42.9727 45.8291C42.92 45.7852 42.8673 45.7236 42.8233 45.6709C43.6056 45.0645 44.4054 44.4756 45.047 43.7021C46.1192 42.4189 46.8311 40.9688 47.2003 39.3428C47.2442 39.1406 47.2091 39.0703 47.0069 39.0791C46.9015 39.0879 46.8048 39.0791 46.6993 39.0791C43.1134 39.0791 39.5186 39.0703 35.9327 39.0879C35.5372 39.0879 35.4493 38.9824 35.4581 38.6045C35.4757 36.0557 35.4757 33.5068 35.4581 30.958C35.4581 30.6328 35.546 30.5449 35.8712 30.5449C42.4454 30.5537 49.0196 30.5537 55.6026 30.5449C55.8839 30.5449 55.9981 30.6152 56.0685 30.9141C56.6046 33.3311 56.5694 35.7568 56.2442 38.2002C55.9806 40.1514 55.506 42.041 54.7765 43.8691C53.6954 46.5674 52.1046 48.9229 50.0128 50.9443C49.9337 51.0059 49.8546 51.0498 49.7843 51.1025Z" fill="#4285F3"/>
<path d="M23.0743 38.7012C21.5625 39.8525 20.0508 40.9951 18.5391 42.1465C17.5987 42.8584 16.6582 43.5791 15.7178 44.2998C14.9883 42.9463 14.5137 41.5137 14.127 40.0371C13.3887 37.1807 13.2745 34.2803 13.6787 31.3711C13.9952 29.0859 14.6543 26.8887 15.7178 24.832C17.0362 25.8428 18.3457 26.8623 19.6641 27.873C20.7979 28.7432 21.9317 29.6045 23.0655 30.4658C22.8721 31.4063 22.5996 32.3291 22.5118 33.2959C22.3536 35.0537 22.5205 36.7676 23.0215 38.4551C23.0567 38.5254 23.0655 38.6133 23.0743 38.7012Z" fill="#FABB06"/>
</svg>
