<svg xmlns="http://www.w3.org/2000/svg" width="56" height="56" viewBox="0 0 56 56" fill="none">
  <circle cx="28" cy="28" r="28" fill="#9960FF"/>
  <path d="M28 12.1667C31.1315 12.1667 34.1927 13.0953 36.7965 14.8351C39.4003 16.5748 41.4297 19.0477 42.6281 21.9408C43.8265 24.834 44.14 28.0175 43.5291 31.0889C42.9181 34.1603 41.4102 36.9815 39.1958 39.1958C36.9815 41.4102 34.1603 42.9181 31.0889 43.5291C28.0176 44.14 24.834 43.8265 21.9408 42.6281C19.0477 41.4297 16.5749 39.4003 14.8351 36.7965C13.0953 34.1927 12.1667 31.1315 12.1667 28C12.1711 23.8021 13.8407 19.7774 16.809 16.809C19.7774 13.8406 23.8021 12.1711 28 12.1667ZM28 10C24.4399 10 20.9598 11.0557 17.9997 13.0335C15.0397 15.0114 12.7326 17.8226 11.3702 21.1117C10.0078 24.4008 9.65134 28.02 10.3459 31.5116C11.0404 35.0033 12.7547 38.2106 15.2721 40.7279C17.7894 43.2452 20.9967 44.9596 24.4884 45.6541C27.98 46.3486 31.5992 45.9922 34.8883 44.6298C38.1774 43.2674 40.9886 40.9603 42.9664 38.0002C44.9443 35.0402 46 31.56 46 28C46 23.2261 44.1036 18.6477 40.7279 15.2721C37.3523 11.8964 32.7739 10 28 10Z" fill="white"/>
  <path d="M28.3598 12.1667C29.0565 12.1667 30.2865 13.3867 31.3365 16.0633C32.5731 19.2167 33.2531 23.4567 33.2531 28C33.2531 32.5433 32.5865 36.7833 31.3365 39.9366C30.2865 42.6033 29.0598 43.8333 28.3598 43.8333C27.6598 43.8333 26.4331 42.6133 25.3831 39.9366C24.1498 36.7833 23.4665 32.5433 23.4665 28C23.4665 23.4567 24.1331 19.2167 25.3831 16.0633C26.4365 13.3833 27.6665 12.1667 28.3598 12.1667ZM28.3598 10C24.4598 10 21.2998 18.06 21.2998 28C21.2998 37.94 24.4598 46 28.3598 46C32.2598 46 35.4198 37.94 35.4198 28C35.4198 18.06 32.2598 10 28.3598 10Z" fill="white"/>
  <path d="M12.5532 33.6235H44.1665" stroke="white" stroke-width="2.16666" stroke-miterlimit="10"/>
  <path d="M12.5532 22.3735H44.1665" stroke="white" stroke-width="2.16666" stroke-miterlimit="10"/>
</svg>