<svg width="1537" height="1931" viewBox="0 0 1537 1931" fill="none" xmlns="http://www.w3.org/2000/svg">
<path d="M1597 14.5C1492 167 1376 441.5 1382.5 580.5C1389 719.5 1417.5 1039 980.136 944C652.636 844 1055.14 664 950.636 909C898.501 1003.5 901.5 1071.5 751.5 1016C591 956.615 489.5 909 257.5 982.5C83.0004 1037.78 -22.8498 1272.5 46.5005 1518C96.5005 1695 150.157 1655.5 184.5 1767C257.5 2004 -83.4995 1911.01 156 1682.5C363 1485 616.365 1381 783.501 1400C950.636 1419 1376.5 1334 1552 1641.5" stroke="url(#paint0_linear_3000_3121)" stroke-opacity="0.5" stroke-width="50"/>
<defs>
    <linearGradient id="paint0_linear_3000_3121" x1="712.001" y1="656.5" x2="712.001" y2="1097.32" gradientUnits="userSpaceOnUse">
    <stop stop-color="#AE81FF"/>
    <stop offset="1" stop-color="#FE5C3A"/>
    </linearGradient>
</defs>
</svg>
