
<svg width="158" height="55" viewBox="0 0 158 55" fill="none" xmlns="http://www.w3.org/2000/svg">
<path d="M64.7724 24.1729V4.5389H73.211C75.03 4.5389 76.4365 5.07335 77.4303 6.14224C78.4242 7.21114 78.9212 8.64571 78.9212 10.446C78.9212 12.2462 78.4242 13.6808 77.4303 14.7497C76.4365 15.8186 75.03 16.353 73.211 16.353H67.9509V24.1729H64.7724ZM67.9509 13.5683H73.0141C73.8205 13.5683 74.4487 13.362 74.8987 12.9494C75.3488 12.5181 75.5738 11.9087 75.5738 11.1211V9.77087C75.5738 8.98326 75.3488 8.38318 74.8987 7.97062C74.4487 7.53931 73.8205 7.32366 73.0141 7.32366H67.9509V13.5683ZM90.0026 24.5104C88.7275 24.5104 87.5648 24.2947 86.5147 23.8634C85.4833 23.4134 84.5925 22.7664 83.8424 21.9225C83.1111 21.0599 82.5391 20.0004 82.1266 18.744C81.7327 17.4688 81.5358 16.0061 81.5358 14.3559C81.5358 12.7056 81.7327 11.2523 82.1266 9.9959C82.5391 8.72072 83.1111 7.6612 83.8424 6.81734C84.5925 5.95472 85.4833 5.30775 86.5147 4.87644C87.5648 4.42638 88.7275 4.20135 90.0026 4.20135C91.2778 4.20135 92.4311 4.42638 93.4625 4.87644C94.5126 5.30775 95.4034 5.95472 96.1347 6.81734C96.8848 7.6612 97.4568 8.72072 97.8506 9.9959C98.2631 11.2523 98.4694 12.7056 98.4694 14.3559C98.4694 16.0061 98.2631 17.4688 97.8506 18.744C97.4568 20.0004 96.8848 21.0599 96.1347 21.9225C95.4034 22.7664 94.5126 23.4134 93.4625 23.8634C92.4311 24.2947 91.2778 24.5104 90.0026 24.5104ZM90.0026 21.6694C90.7527 21.6694 91.4372 21.5381 92.056 21.2756C92.6936 21.013 93.2281 20.638 93.6594 20.1504C94.1095 19.6441 94.4564 19.0346 94.7002 18.322C94.9439 17.6094 95.0658 16.8031 95.0658 15.903V12.8088C95.0658 11.9087 94.9439 11.1023 94.7002 10.3897C94.4564 9.67711 94.1095 9.07702 93.6594 8.58946C93.2281 8.08314 92.6936 7.69871 92.056 7.43617C91.4372 7.17364 90.7527 7.04237 90.0026 7.04237C89.2338 7.04237 88.5399 7.17364 87.9211 7.43617C87.3023 7.69871 86.7678 8.08314 86.3178 8.58946C85.8864 9.07702 85.5489 9.67711 85.3051 10.3897C85.0613 11.1023 84.9394 11.9087 84.9394 12.8088V15.903C84.9394 16.8031 85.0613 17.6094 85.3051 18.322C85.5489 19.0346 85.8864 19.6441 86.3178 20.1504C86.7678 20.638 87.3023 21.013 87.9211 21.2756C88.5399 21.5381 89.2338 21.6694 90.0026 21.6694ZM102.433 24.1729V4.5389H105.612V21.36H113.6V24.1729H102.433ZM119.243 24.1729V16.4374L112.493 4.5389H116.121L120.903 13.287H120.987L125.741 4.5389H129.229L122.422 16.3812V24.1729H119.243Z" fill="#D2B9FF"/>
<path d="M64.7724 24.1729V4.5389H73.211C75.03 4.5389 76.4365 5.07335 77.4303 6.14224C78.4242 7.21114 78.9212 8.64571 78.9212 10.446C78.9212 12.2462 78.4242 13.6808 77.4303 14.7497C76.4365 15.8186 75.03 16.353 73.211 16.353H67.9509V24.1729H64.7724ZM67.9509 13.5683H73.0141C73.8205 13.5683 74.4487 13.362 74.8987 12.9494C75.3488 12.5181 75.5738 11.9087 75.5738 11.1211V9.77087C75.5738 8.98326 75.3488 8.38318 74.8987 7.97062C74.4487 7.53931 73.8205 7.32366 73.0141 7.32366H67.9509V13.5683ZM90.0026 24.5104C88.7275 24.5104 87.5648 24.2947 86.5147 23.8634C85.4833 23.4134 84.5925 22.7664 83.8424 21.9225C83.1111 21.0599 82.5391 20.0004 82.1266 18.744C81.7327 17.4688 81.5358 16.0061 81.5358 14.3559C81.5358 12.7056 81.7327 11.2523 82.1266 9.9959C82.5391 8.72072 83.1111 7.6612 83.8424 6.81734C84.5925 5.95472 85.4833 5.30775 86.5147 4.87644C87.5648 4.42638 88.7275 4.20135 90.0026 4.20135C91.2778 4.20135 92.4311 4.42638 93.4625 4.87644C94.5126 5.30775 95.4034 5.95472 96.1347 6.81734C96.8848 7.6612 97.4568 8.72072 97.8506 9.9959C98.2631 11.2523 98.4694 12.7056 98.4694 14.3559C98.4694 16.0061 98.2631 17.4688 97.8506 18.744C97.4568 20.0004 96.8848 21.0599 96.1347 21.9225C95.4034 22.7664 94.5126 23.4134 93.4625 23.8634C92.4311 24.2947 91.2778 24.5104 90.0026 24.5104ZM90.0026 21.6694C90.7527 21.6694 91.4372 21.5381 92.056 21.2756C92.6936 21.013 93.2281 20.638 93.6594 20.1504C94.1095 19.6441 94.4564 19.0346 94.7002 18.322C94.9439 17.6094 95.0658 16.8031 95.0658 15.903V12.8088C95.0658 11.9087 94.9439 11.1023 94.7002 10.3897C94.4564 9.67711 94.1095 9.07702 93.6594 8.58946C93.2281 8.08314 92.6936 7.69871 92.056 7.43617C91.4372 7.17364 90.7527 7.04237 90.0026 7.04237C89.2338 7.04237 88.5399 7.17364 87.9211 7.43617C87.3023 7.69871 86.7678 8.08314 86.3178 8.58946C85.8864 9.07702 85.5489 9.67711 85.3051 10.3897C85.0613 11.1023 84.9394 11.9087 84.9394 12.8088V15.903C84.9394 16.8031 85.0613 17.6094 85.3051 18.322C85.5489 19.0346 85.8864 19.6441 86.3178 20.1504C86.7678 20.638 87.3023 21.013 87.9211 21.2756C88.5399 21.5381 89.2338 21.6694 90.0026 21.6694ZM102.433 24.1729V4.5389H105.612V21.36H113.6V24.1729H102.433ZM119.243 24.1729V16.4374L112.493 4.5389H116.121L120.903 13.287H120.987L125.741 4.5389H129.229L122.422 16.3812V24.1729H119.243Z" fill="url(#paint0_linear_989_85)"/>
<path d="M77.4022 44.9466H77.2897C77.0834 45.9029 76.5208 46.6999 75.602 47.3375C74.7018 47.9564 73.5017 48.2658 72.0015 48.2658C70.8388 48.2658 69.7605 48.0501 68.7667 47.6188C67.7728 47.1687 66.9101 46.5218 66.1788 45.6779C65.4662 44.8153 64.9036 43.7558 64.4911 42.4994C64.0973 41.2242 63.9004 39.7615 63.9004 38.1112C63.9004 36.4798 64.1066 35.0358 64.5192 33.7794C64.9318 32.5042 65.5131 31.4353 66.2632 30.5727C67.0133 29.7101 67.9134 29.0631 68.9636 28.6318C70.0137 28.1818 71.1857 27.9567 72.4797 27.9567C74.2424 27.9567 75.7332 28.3505 76.9522 29.1381C78.1711 29.907 79.1181 30.9853 79.7932 32.373L77.2053 33.8919C76.8303 32.973 76.2489 32.2323 75.4613 31.6697C74.6737 31.0884 73.6798 30.7977 72.4797 30.7977C70.9232 30.7977 69.6668 31.2947 68.7104 32.2886C67.7728 33.2825 67.304 34.6889 67.304 36.5079V39.7146C67.304 41.5336 67.7728 42.94 68.7104 43.9339C69.6668 44.9278 70.9232 45.4248 72.4797 45.4248C73.0985 45.4248 73.6892 45.3497 74.2518 45.1997C74.8144 45.0309 75.3019 44.7965 75.7145 44.4965C76.1458 44.1777 76.4833 43.7933 76.7271 43.3432C76.9897 42.8744 77.1209 42.3306 77.1209 41.7117V40.1928H73.0704V37.4643H80.187V47.9282H77.4022V44.9466ZM96.8696 47.9282L95.0975 42.6119H87.7558L86.04 47.9282H82.8052L89.4998 28.2943H93.4941L100.189 47.9282H96.8696ZM91.497 31.2197H91.3563L88.5153 39.8834H94.3099L91.497 31.2197ZM118.251 32.9074H118.11L116.563 36.086L112.259 43.9339L107.955 36.086L106.408 32.9074H106.268V47.9282H103.23V28.2943H106.999L112.259 38.28H112.428L117.688 28.2943H121.289V47.9282H118.251V32.9074ZM126.139 47.9282V28.2943H138.713V31.1072H129.318V36.5642H137.841V39.377H129.318V45.1153H138.713V47.9282H126.139ZM148.692 48.2658C147.042 48.2658 145.636 47.9657 144.473 47.3656C143.329 46.7656 142.345 45.9592 141.52 44.9466L143.714 42.8932C144.407 43.737 145.167 44.3746 145.992 44.8059C146.836 45.2372 147.792 45.4529 148.861 45.4529C150.118 45.4529 151.065 45.1716 151.702 44.609C152.34 44.0464 152.659 43.287 152.659 42.3306C152.659 41.5617 152.434 40.9523 151.984 40.5022C151.533 40.0521 150.736 39.7146 149.593 39.4896L147.849 39.1801C145.936 38.8238 144.501 38.1956 143.545 37.2955C142.588 36.3954 142.11 35.1577 142.11 33.5825C142.11 32.7199 142.27 31.9416 142.588 31.2478C142.926 30.5352 143.385 29.9445 143.967 29.4757C144.567 28.9881 145.289 28.6131 146.133 28.3505C146.977 28.088 147.924 27.9567 148.974 27.9567C150.455 27.9567 151.74 28.2193 152.827 28.7443C153.915 29.2507 154.843 29.9914 155.612 30.9665L153.39 32.9355C152.884 32.2792 152.265 31.7541 151.533 31.3603C150.802 30.9665 149.893 30.7696 148.805 30.7696C147.68 30.7696 146.808 30.9946 146.189 31.4447C145.57 31.8948 145.261 32.5511 145.261 33.4137C145.261 34.2388 145.514 34.8577 146.02 35.2702C146.527 35.664 147.314 35.9641 148.383 36.1704L150.127 36.536C152.096 36.9111 153.531 37.5487 154.431 38.4488C155.35 39.3489 155.809 40.5866 155.809 42.1618C155.809 43.0807 155.65 43.9152 155.331 44.6653C155.012 45.4154 154.543 46.0623 153.924 46.6062C153.324 47.1312 152.584 47.5438 151.702 47.8438C150.821 48.1251 149.818 48.2658 148.692 48.2658Z" fill="url(#paint1_linear_989_85)"/>
<circle cx="27.5" cy="27.5" r="20.9051" stroke="url(#paint2_angular_989_85)" stroke-width="13.1897"/>
<ellipse cx="48.3903" cy="27.5521" rx="6.6103" ry="6.6" fill="#6F1FFF"/>
<path d="M27.9355 28.4362L10.9665 19.4752L27.9355 9.52841L45.0378 18.6396L27.9355 28.4362Z" fill="url(#paint3_linear_989_85)"/>
<path d="M27.9357 28.4363L10.9667 19.4752L27.9358 9.43628L45.038 18.6397L27.9357 28.4363Z" fill="url(#paint4_linear_989_85)"/>
<path d="M27.9356 28.4363L27.9353 45.4364L45.5273 36.422L45.0371 18.6399L27.9356 28.4363Z" fill="url(#paint5_linear_989_85)"/>
<path d="M44.7287 19.1838L45.1997 36.2557L28.2663 45.0032L28.2849 28.602L44.7287 19.1838ZM45.0372 18.6396L27.9573 28.4361L27.936 45.5377L45.5273 36.4216L45.0372 18.6396Z" fill="url(#paint6_linear_989_85)"/>
<path d="M27.9355 28.4359L27.9355 45.4359L11.4573 37.2541L10.9663 19.4751L27.9355 28.4359Z" fill="url(#paint7_linear_989_85)"/>
<path d="M11.2991 20.0007L27.6158 28.659L27.598 45.0562L11.8359 37.1763L11.2991 20.0007ZM10.9658 19.4663L11.4559 37.2963L27.9337 45.5768L27.9337 28.4364L10.9658 19.4663Z" fill="url(#paint8_linear_989_85)"/>
<path style="mix-blend-mode:hard-light" d="M26.9118 23.2639C31.2548 23.2639 34.7755 19.7487 34.7755 15.4125C34.7755 11.0762 31.2548 7.56104 26.9118 7.56104C22.5688 7.56104 19.0481 11.0762 19.0481 15.4125C19.0481 19.7487 22.5688 23.2639 26.9118 23.2639Z" fill="url(#paint9_radial_989_85)"/>
<path d="M24.5496 12.4359L35.9358 9.25225L24.6463 12.7603L27.8272 24.1465L24.322 12.857L12.9358 16.0379L24.2253 12.5327L21.0416 1.14648L24.5496 12.4359Z" fill="url(#paint10_radial_989_85)"/>
<path style="mix-blend-mode:hard-light" d="M29.0297 9.48888C30.549 7.8083 30.4161 5.21621 28.7329 3.69929C27.0497 2.18237 24.4536 2.31504 22.9343 3.99562C21.415 5.6762 21.5479 8.26828 23.2311 9.78521C24.9143 11.3021 27.5104 11.1695 29.0297 9.48888Z" fill="url(#paint11_radial_989_85)"/>
<path d="M25.8792 6.28554L30.4688 5.00351L25.9154 6.41703L27.1994 10.9995L25.787 6.45648L21.1941 7.73522L25.7475 6.32499L24.4634 1.73926L25.8792 6.28554Z" fill="url(#paint12_radial_989_85)"/>
<path style="mix-blend-mode:hard-light" opacity="0.6" d="M35.0155 44.9999L42.9358 42.7858L35.0824 45.2262L37.2939 53.1465L34.8561 45.2931L26.9358 47.5071L34.7892 45.0668L32.5751 37.1465L35.0155 44.9999Z" fill="url(#paint13_radial_989_85)"/>
<path style="mix-blend-mode:hard-light" opacity="0.6" d="M31.5983 48.2823L36.685 46.8655L31.6411 48.4269L33.0634 53.5058L31.4962 48.473L26.4094 49.8898L31.4534 48.325L30.0311 43.2495L31.5983 48.2823Z" fill="url(#paint14_radial_989_85)"/>
<defs>
<linearGradient id="paint0_linear_989_85" x1="93.8671" y1="11.7456" x2="101.359" y2="41.1593" gradientUnits="userSpaceOnUse">
<stop stop-color="#7430ED" stop-opacity="0.1"/>
<stop offset="1" stop-color="#3C0368" stop-opacity="0.82"/>
</linearGradient>
<linearGradient id="paint1_linear_989_85" x1="99.5303" y1="27.6291" x2="110.525" y2="47.5578" gradientUnits="userSpaceOnUse">
<stop stop-color="#843FFF"/>
<stop offset="1" stop-color="#AC23EC"/>
</linearGradient>
<radialGradient id="paint2_angular_989_85" cx="0" cy="0" r="1" gradientUnits="userSpaceOnUse" gradientTransform="translate(27.5 27.5) scale(27.5)">
<stop stop-color="#AC1AF1" stop-opacity="0"/>
<stop offset="0.958311" stop-color="#7B2DFE" stop-opacity="0.958311"/>
<stop offset="1" stop-color="#792EFF"/>
</radialGradient>
<linearGradient id="paint3_linear_989_85" x1="19.2615" y1="11.2586" x2="35.7231" y2="27.873" gradientUnits="userSpaceOnUse">
<stop stop-color="#FBC2EB"/>
<stop offset="1" stop-color="#8DCEFF"/>
</linearGradient>
<linearGradient id="paint4_linear_989_85" x1="27.4586" y1="16.6236" x2="29.7209" y2="28.0727" gradientUnits="userSpaceOnUse">
<stop stop-color="#9E0BAF" stop-opacity="0"/>
<stop offset="0.03" stop-color="#9A0BAB" stop-opacity="0.03"/>
<stop offset="1" stop-color="#230F43" stop-opacity="0.7"/>
</linearGradient>
<linearGradient id="paint5_linear_989_85" x1="28.3766" y1="32.5766" x2="45.4108" y2="32.1056" gradientUnits="userSpaceOnUse">
<stop stop-color="#9E0BAF"/>
<stop offset="0.07" stop-color="#810C96"/>
<stop offset="0.15" stop-color="#640D7C"/>
<stop offset="0.25" stop-color="#4C0E67"/>
<stop offset="0.36" stop-color="#3A0E57"/>
<stop offset="0.49" stop-color="#2D0F4C"/>
<stop offset="0.65" stop-color="#250F45"/>
<stop offset="1" stop-color="#230F43"/>
</linearGradient>
<linearGradient id="paint6_linear_989_85" x1="27.1924" y1="44.5318" x2="43.2299" y2="22.0611" gradientUnits="userSpaceOnUse">
<stop stop-color="#FBC2EB"/>
<stop offset="0.04" stop-color="#F3C3ED" stop-opacity="0.91"/>
<stop offset="0.17" stop-color="#D5C6F2" stop-opacity="0.59"/>
<stop offset="0.28" stop-color="#BEC9F6" stop-opacity="0.34"/>
<stop offset="0.38" stop-color="#ADCAF9" stop-opacity="0.15"/>
<stop offset="0.46" stop-color="#A3CCFB" stop-opacity="0.04"/>
<stop offset="0.5" stop-color="#9FCCFC" stop-opacity="0"/>
<stop offset="0.55" stop-color="#9FCCFC" stop-opacity="0.02"/>
<stop offset="0.61" stop-color="#9ECCFC" stop-opacity="0.08"/>
<stop offset="0.68" stop-color="#9CCCFD" stop-opacity="0.18"/>
<stop offset="0.75" stop-color="#99CDFD" stop-opacity="0.32"/>
<stop offset="0.83" stop-color="#96CDFD" stop-opacity="0.5"/>
<stop offset="0.91" stop-color="#92CDFE" stop-opacity="0.72"/>
<stop offset="0.99" stop-color="#8ECEFF" stop-opacity="0.97"/>
<stop offset="1" stop-color="#8DCEFF"/>
</linearGradient>
<linearGradient id="paint7_linear_989_85" x1="28.2283" y1="32.3915" x2="11.192" y2="32.7899" gradientUnits="userSpaceOnUse">
<stop stop-color="#230F43"/>
<stop offset="0.35" stop-color="#250F45"/>
<stop offset="0.51" stop-color="#2D0F4C"/>
<stop offset="0.64" stop-color="#3A0E57"/>
<stop offset="0.75" stop-color="#4C0E67"/>
<stop offset="0.85" stop-color="#640D7C"/>
<stop offset="0.93" stop-color="#810C96"/>
<stop offset="1" stop-color="#9E0BAF"/>
</linearGradient>
<linearGradient id="paint8_linear_989_85" x1="12.7093" y1="26.2349" x2="28.2552" y2="42.7581" gradientUnits="userSpaceOnUse">
<stop stop-color="#FBC2EB"/>
<stop offset="0.04" stop-color="#F3C3ED" stop-opacity="0.91"/>
<stop offset="0.17" stop-color="#D5C6F2" stop-opacity="0.59"/>
<stop offset="0.28" stop-color="#BEC9F6" stop-opacity="0.34"/>
<stop offset="0.38" stop-color="#ADCAF9" stop-opacity="0.15"/>
<stop offset="0.46" stop-color="#A3CCFB" stop-opacity="0.04"/>
<stop offset="0.5" stop-color="#9FCCFC" stop-opacity="0"/>
<stop offset="0.55" stop-color="#9FCCFC" stop-opacity="0.02"/>
<stop offset="0.61" stop-color="#9ECCFC" stop-opacity="0.08"/>
<stop offset="0.68" stop-color="#9CCCFD" stop-opacity="0.18"/>
<stop offset="0.75" stop-color="#99CDFD" stop-opacity="0.32"/>
<stop offset="0.83" stop-color="#96CDFD" stop-opacity="0.5"/>
<stop offset="0.91" stop-color="#92CDFE" stop-opacity="0.72"/>
<stop offset="0.99" stop-color="#8ECEFF" stop-opacity="0.97"/>
<stop offset="1" stop-color="#8DCEFF"/>
</linearGradient>
<radialGradient id="paint9_radial_989_85" cx="0" cy="0" r="1" gradientUnits="userSpaceOnUse" gradientTransform="translate(26.9118 15.4125) scale(7.86372 7.85144)">
<stop stop-color="#8DCEFF"/>
<stop offset="0.12" stop-color="#92BAFB" stop-opacity="0.82"/>
<stop offset="0.3" stop-color="#9A9EF6" stop-opacity="0.57"/>
<stop offset="0.47" stop-color="#A087F2" stop-opacity="0.37"/>
<stop offset="0.63" stop-color="#A575EF" stop-opacity="0.21"/>
<stop offset="0.78" stop-color="#A869ED" stop-opacity="0.09"/>
<stop offset="0.9" stop-color="#AA61EB" stop-opacity="0.02"/>
<stop offset="1" stop-color="#AB5EEB" stop-opacity="0"/>
</radialGradient>
<radialGradient id="paint10_radial_989_85" cx="0" cy="0" r="1" gradientUnits="userSpaceOnUse" gradientTransform="translate(24.4376 12.6469) rotate(28.56) scale(8.47848)">
<stop stop-color="#8DCEFF"/>
<stop offset="0.05" stop-color="#97CDFD" stop-opacity="0.91"/>
<stop offset="0.2" stop-color="#B1CAF8" stop-opacity="0.67"/>
<stop offset="0.35" stop-color="#C8C8F4" stop-opacity="0.47"/>
<stop offset="0.5" stop-color="#DAC6F1" stop-opacity="0.3"/>
<stop offset="0.64" stop-color="#E8C4EE" stop-opacity="0.17"/>
<stop offset="0.77" stop-color="#F3C3ED" stop-opacity="0.08"/>
<stop offset="0.89" stop-color="#F9C2EB" stop-opacity="0.02"/>
<stop offset="1" stop-color="#FBC2EB" stop-opacity="0"/>
</radialGradient>
<radialGradient id="paint11_radial_989_85" cx="0" cy="0" r="1" gradientUnits="userSpaceOnUse" gradientTransform="translate(25.9805 6.74114) scale(4.10563 4.09922)">
<stop stop-color="#8DCEFF"/>
<stop offset="0.12" stop-color="#92BAFB" stop-opacity="0.82"/>
<stop offset="0.3" stop-color="#9A9EF6" stop-opacity="0.57"/>
<stop offset="0.47" stop-color="#A087F2" stop-opacity="0.37"/>
<stop offset="0.63" stop-color="#A575EF" stop-opacity="0.21"/>
<stop offset="0.78" stop-color="#A869ED" stop-opacity="0.09"/>
<stop offset="0.9" stop-color="#AA61EB" stop-opacity="0.02"/>
<stop offset="1" stop-color="#AB5EEB" stop-opacity="0"/>
</radialGradient>
<radialGradient id="paint12_radial_989_85" cx="0" cy="0" r="1" gradientUnits="userSpaceOnUse" gradientTransform="translate(25.8352 6.371) rotate(28.5224) scale(3.41959 3.41668)">
<stop stop-color="#8DCEFF"/>
<stop offset="0.05" stop-color="#97CDFD" stop-opacity="0.91"/>
<stop offset="0.2" stop-color="#B1CAF8" stop-opacity="0.67"/>
<stop offset="0.35" stop-color="#C8C8F4" stop-opacity="0.47"/>
<stop offset="0.5" stop-color="#DAC6F1" stop-opacity="0.3"/>
<stop offset="0.64" stop-color="#E8C4EE" stop-opacity="0.17"/>
<stop offset="0.77" stop-color="#F3C3ED" stop-opacity="0.08"/>
<stop offset="0.89" stop-color="#F9C2EB" stop-opacity="0.02"/>
<stop offset="1" stop-color="#FBC2EB" stop-opacity="0"/>
</radialGradient>
<radialGradient id="paint13_radial_989_85" cx="0" cy="0" r="1" gradientUnits="userSpaceOnUse" gradientTransform="translate(34.9374 45.148) rotate(28.56) scale(5.89907)">
<stop stop-color="#FF00FF"/>
<stop offset="0.52" stop-color="#85008A" stop-opacity="0.49"/>
<stop offset="1" stop-color="#11001B" stop-opacity="0"/>
</radialGradient>
<radialGradient id="paint14_radial_989_85" cx="0" cy="0" r="1" gradientUnits="userSpaceOnUse" gradientTransform="translate(31.5517 48.3777) rotate(28.5224) scale(3.78491 3.7817)">
<stop stop-color="#FF00FF"/>
<stop offset="0.52" stop-color="#85008A" stop-opacity="0.49"/>
<stop offset="1" stop-color="#11001B" stop-opacity="0"/>
</radialGradient>
</defs>
</svg>
