<svg width="43" height="43" viewBox="0 0 43 43" fill="none" xmlns="http://www.w3.org/2000/svg">
<path fill-rule="evenodd" clip-rule="evenodd" d="M3.02323 3.02323C0 6.04481 0 10.9104 0 20.64V22.36C0 32.0896 0 36.9552 3.02323 39.9768C6.04481 43 10.9104 43 20.64 43H22.36C32.0896 43 36.9552 43 39.9768 39.9768C43 36.9552 43 32.0896 43 22.36V20.64C43 10.9104 43 6.04481 39.9768 3.02323C36.9552 0 32.0896 0 22.36 0H20.64C10.9104 0 6.04481 0 3.02323 3.02323ZM23.6467 13.4276C21.1279 14.4695 16.0952 16.6228 8.54708 19.8908C7.32323 20.3754 6.67988 20.85 6.622 21.3131C6.52277 22.0954 7.51012 22.4047 8.85469 22.8231L9.42031 23.0017C10.7417 23.4284 12.5196 23.9278 13.4441 23.9477C14.2826 23.9659 15.2187 23.6235 16.2523 22.9173C23.3027 18.1873 26.9428 15.7975 27.1727 15.7446C27.3331 15.7082 27.5564 15.6619 27.7085 15.7975C27.859 15.9298 27.8442 16.1845 27.8276 16.2523C27.73 16.6658 23.8584 20.2447 21.8539 22.0954C21.464 22.4511 21.0781 22.8111 20.6962 23.1753C20.4912 23.3854 20.2844 23.5838 20.086 23.774C18.8588 24.9499 17.936 25.8331 20.1372 27.2736C21.1957 27.9649 22.0392 28.5371 22.8843 29.1093C23.8055 29.7328 24.725 30.3547 25.9141 31.1303C26.2184 31.3272 26.5078 31.5322 26.789 31.7323C27.8623 32.4931 28.8249 33.1745 30.0157 33.0653C30.707 33.0025 31.4214 32.3558 31.7853 30.4275C32.642 25.8711 34.3289 15.9993 34.7175 11.9325C34.7414 11.594 34.727 11.2539 34.6745 10.9187C34.6434 10.6485 34.5117 10.4 34.3057 10.2224C33.9965 9.97269 33.5168 9.91977 33.3035 9.92473C32.3294 9.94127 30.836 10.4573 23.645 13.4276H23.6467Z" fill="#ADADAC"/>
</svg>
