<svg width="43" height="43" viewBox="0 0 43 43" fill="none" xmlns="http://www.w3.org/2000/svg">
<path fill-rule="evenodd" clip-rule="evenodd" d="M3.02323 3.02323C0 6.04481 0 10.9104 0 20.64V22.36C0 32.0896 0 36.9552 3.02323 39.9768C6.04481 43 10.9104 43 20.64 43H22.36C32.0896 43 36.9552 43 39.9768 39.9768C43 36.9552 43 32.0896 43 22.36V20.64C43 10.9104 43 6.04481 39.9768 3.02323C36.9552 0 32.0896 0 22.36 0H20.64C10.9104 0 6.04481 0 3.02323 3.02323ZM7.25708 13.0786C7.48862 24.2586 13.0786 30.9782 22.881 30.9782H23.435V24.5811C27.0371 24.94 29.7593 27.5746 30.8525 30.9782H35.9414C34.5439 25.8893 30.8707 23.0761 28.5768 22.0011C30.8707 20.6764 34.0957 17.4514 34.8664 13.0786H30.2439C29.24 16.6261 26.2664 19.8511 23.435 20.1571V13.0786H18.8125V25.4775C15.9464 24.7614 12.3278 21.285 12.1657 13.0786H7.25708Z" fill="#ADADAC"/>
</svg>
